<svg version="1.1" id="Layer_1" xmlns="http://www.w3.org/2000/svg" xmlns:xlink="http://www.w3.org/1999/xlink" x="0px" y="0px"
	 width="100%" viewBox="0 0 352 352" enable-background="new 0 0 352 352" xml:space="preserve">
<path fill="#000000" opacity="1.000000" stroke="none" 
	d="
M166.987473,194.978058 
	C169.830460,196.257599 170.730240,198.455399 170.222168,201.458328 
	C168.364578,212.437332 170.424316,222.952454 174.176636,233.232513 
	C174.941666,235.328430 174.961212,236.957642 172.995865,238.484131 
	C157.143509,250.796677 142.918060,264.734894 130.899200,280.864105 
	C130.446991,281.470947 129.873703,282.222321 128.250702,281.596161 
	C129.253632,278.557861 130.290527,275.475800 131.288956,272.381317 
	C134.763138,261.613556 138.264862,250.854370 141.661224,240.062042 
	C142.510468,237.363464 143.548050,235.378326 146.786224,234.808289 
	C151.156693,234.038895 153.360031,230.633881 153.416885,226.550552 
	C153.468460,222.847961 151.242355,219.830582 147.540482,218.660660 
	C143.670013,217.437469 140.221512,218.524658 137.872284,221.938721 
	C135.511154,225.370071 135.599838,229.077988 138.458588,232.028214 
	C140.886261,234.533569 140.554932,236.754349 139.595764,239.659729 
	C135.321640,252.606110 131.257614,265.621796 127.093513,278.604706 
	C126.807541,279.496338 126.671112,280.602844 124.901802,280.833496 
	C124.596039,277.594849 124.133400,274.381653 124.014885,271.155853 
	C123.407173,254.614929 120.489899,238.455566 115.876556,222.606277 
	C114.703232,218.575272 115.101616,216.076660 118.979759,213.565353 
	C127.778091,207.867935 134.667542,200.161530 139.415588,190.760635 
	C140.855362,187.909943 142.406921,187.383591 145.325211,188.368393 
	C152.250977,190.705521 159.277359,192.744446 166.639465,194.952774 
	C167.015839,195.001678 166.987473,194.978058 166.987473,194.978058 
z"/>
<path fill="#000000" opacity="1.000000" stroke="none" 
	d="
M167.032959,195.009552 
	C159.463562,191.084991 151.035934,189.488281 143.141693,186.409698 
	C141.010193,185.578445 138.646698,185.203476 136.515335,182.947968 
	C143.173431,171.909195 151.386490,162.144165 159.386017,152.217972 
	C159.872314,152.522446 160.358612,152.826920 160.844910,153.131393 
	C157.841110,158.741074 154.848343,164.356705 151.830658,169.958893 
	C148.343552,176.432510 148.334015,176.427353 155.315506,178.680603 
	C164.847427,181.757019 164.930573,181.778946 167.373154,172.513901 
	C175.009979,143.546188 189.748230,118.154770 206.862137,93.966728 
	C212.784393,85.596489 218.853607,77.324730 226.253952,70.021294 
	C201.284134,109.020615 182.652679,150.422440 176.502808,196.817444 
	C173.367004,197.227188 170.779510,195.087448 167.388153,195.003052 
	C166.987473,194.978058 167.015839,195.001678 167.032959,195.009552 
z"/>
<path fill="#000000" opacity="1.000000" stroke="none" 
	d="
M182.993973,267.114258 
	C179.671783,267.619385 176.707764,267.888367 173.881241,270.046173 
	C177.831711,273.099915 182.307739,273.657593 186.556580,274.603546 
	C198.729187,277.313538 211.062103,279.299744 223.086929,282.677429 
	C225.166443,283.261566 227.256058,283.882904 229.233917,284.735474 
	C231.284744,285.619476 234.257706,286.125519 233.943130,289.078491 
	C233.651199,291.818787 230.786591,292.297394 228.592438,292.858948 
	C225.054337,293.764526 221.461395,294.580658 217.841324,295.020905 
	C194.624451,297.844513 171.339096,297.881592 148.017258,296.644012 
	C136.712799,296.044159 125.472580,294.916870 114.268372,293.350159 
	C113.145012,293.193085 111.943565,293.295563 110.699112,291.292328 
	C147.754684,293.087463 184.232361,294.851074 221.449081,289.382660 
	C219.536682,286.771118 217.768646,286.641205 216.085098,286.244781 
	C203.461273,283.272217 190.829163,280.331146 178.241089,277.212952 
	C175.192734,276.457825 172.233292,275.224823 169.358414,273.932434 
	C167.599716,273.141846 165.478394,272.220398 165.537003,269.786713 
	C165.595840,267.344391 167.745621,266.597107 169.562393,265.866180 
	C176.412872,263.110199 183.666611,261.947174 190.910217,260.903015 
	C210.105240,258.135956 229.440414,258.652252 248.750702,258.704865 
	C249.376938,258.706573 250.002487,258.963013 251.285660,259.245270 
	C248.788712,261.381653 246.282822,261.057373 243.949310,261.156158 
	C226.988495,261.874115 210.058762,262.966644 193.234604,265.321442 
	C189.943085,265.782135 186.682114,266.460999 182.993973,267.114258 
z"/>
</svg>